# xmcd
#
# Track frame offsets: 
#        150
#        21848
#        38665
#        55019
#        78919
#        102648
#        120755
#        141562
#        157315
#        175593
#
# Disc length: 2550 seconds
#
# Revision: 0
# Processed by: cddbd v1.5.2PL0 Copyright (c) Steve Scherf et al.
# Submitted via: ExactAudioCopy v1.0b3
#
DISCID=7c09f40a
DTITLE=Mong Thi - Pho Xa
DYEAR=1998
DGENRE=
TTITLE0=Hon gian
TTITLE1=Pho xa
TTITLE2=Anh chang de ghet
TTITLE3=Mua ngau
TTITLE4=Tinh vang
TTITLE5=Cay si
TTITLE6=Hua di anh
TTITLE7=Co be rang khenh
TTITLE8=Xa la
TTITLE9=Ngau nhien
EXTD=
EXTT0=
EXTT1=
EXTT2=
EXTT3=
EXTT4=
EXTT5=
EXTT6=
EXTT7=
EXTT8=
EXTT9=
PLAYORDER=
